HIERARCHY
ROOT root
{
	OFFSET 0.000000 0.000000 0.000000
	CHANNELS 6 Xposition Yposition Zposition Zrotation Yrotation Xrotation
	JOINT lhip
	{
		OFFSET 0.058581 -0.082280 -0.017664
		CHANNELS 3 Zrotation Yrotation Xrotation
		JOINT lknee
		{
			OFFSET 0.043451 -0.386469 0.008037
			CHANNELS 3 Zrotation Yrotation Xrotation
			JOINT lankle
			{
				OFFSET -0.014790 -0.426874 -0.037428
				CHANNELS 3 Zrotation Yrotation Xrotation
				JOINT ltoe
				{
					OFFSET 0.041054 -0.060286 0.122042
					CHANNELS 3 Zrotation Yrotation Xrotation
					End Site
					{
						OFFSET 0.000000 0.000000 0.000000
					}
				}
			}
		}
	}
	JOINT rhip
	{
		OFFSET -0.060310 -0.090513 -0.013543
		CHANNELS 3 Zrotation Yrotation Xrotation
		JOINT rknee
		{
			OFFSET -0.043257 -0.383688 -0.004843
			CHANNELS 3 Zrotation Yrotation Xrotation
			JOINT rankle
			{
				OFFSET 0.019056 -0.420046 -0.034562
				CHANNELS 3 Zrotation Yrotation Xrotation
				JOINT rtoe
				{
					OFFSET -0.034840 -0.062106 0.130323
					CHANNELS 3 Zrotation Yrotation Xrotation
					End Site
					{
						OFFSET 0.000000 0.000000 0.000000
					}
				}
			}
		}
	}
	JOINT lowerback
	{
		OFFSET 0.004439 0.124404 -0.038385
		CHANNELS 3 Zrotation Yrotation Xrotation
		JOINT upperback
		{
			OFFSET 0.004488 0.137956 0.026820
			CHANNELS 3 Zrotation Yrotation Xrotation
			JOINT chest
			{
				OFFSET -0.002265 0.056032 0.002855
				CHANNELS 3 Zrotation Yrotation Xrotation
				JOINT lowerneck
				{
					OFFSET -0.013390 0.211636 -0.033468
					CHANNELS 3 Zrotation Yrotation Xrotation
					JOINT upperneck
					{
						OFFSET 0.010113 0.088937 0.050410
						CHANNELS 3 Zrotation Yrotation Xrotation
						End Site
						{
							OFFSET 0.000000 0.000000 0.000000
						}
					}
				}
				JOINT lclavicle
				{
					OFFSET 0.071702 0.114000 -0.018898
					CHANNELS 3 Zrotation Yrotation Xrotation
					JOINT lshoulder
					{
						OFFSET 0.122921 0.045205 -0.019046
						CHANNELS 3 Zrotation Yrotation Xrotation
						JOINT lelbow
						{
							OFFSET 0.255332 -0.015649 -0.022946
							CHANNELS 3 Zrotation Yrotation Xrotation
							JOINT lwrist
							{
								OFFSET 0.265709 0.012698 -0.007375
								CHANNELS 3 Zrotation Yrotation Xrotation
								End Site
								{
									OFFSET 0.000000 0.000000 0.000000
								}
							}
						}
					}
				}
				JOINT rclavicle
				{
					OFFSET -0.082954 0.112472 -0.023707
					CHANNELS 3 Zrotation Yrotation Xrotation
					JOINT rshoulder
					{
						OFFSET -0.113228 0.046853 -0.008472
						CHANNELS 3 Zrotation Yrotation Xrotation
						JOINT relbow
						{
							OFFSET -0.260127 -0.014369 -0.031269
							CHANNELS 3 Zrotation Yrotation Xrotation
							JOINT rwrist
							{
								OFFSET -0.269108 0.006794 -0.006027
								CHANNELS 3 Zrotation Yrotation Xrotation
								End Site
								{
									OFFSET 0.000000 0.000000 0.000000
								}
							}
						}
					}
				}
			}
		}
	}
}
MOTION
Frames: 8
Frame Time: 0.033333
0.893036 0.574504 0.549095 91.149953 -1.862802 179.053293 16.486448 -5.359717 -9.263882 -15.224710 -11.150746 103.681535 1.499743 22.128922 -21.912816 0.000000 -0.000000 0.000000 -21.707011 1.488562 -7.086335 7.906077 10.906937 115.015965 1.043010 -23.570881 -20.346550 0.000000 -0.000000 0.000000 -1.642251 1.873115 2.718390 1.535181 -4.942483 0.157713 0.997649 0.543843 -2.648782 -0.714562 -9.384895 -6.220577 7.598233 -0.939420 -31.897981 40.505890 -29.050063 -27.621596 6.229144 -15.054451 -20.677986 0.846122 -5.462728 2.911025 0.534147 -8.584899 6.911063 -40.226915 21.458504 -26.512528 2.240431 9.905817 -15.301826 -4.051880 11.510560 -0.542021 20.728023 1.808178 6.520615 
0.892237 0.574940 0.547242 90.894469 -1.656142 178.953499 16.157669 -5.446732 -9.276128 -15.976591 -11.752986 102.444461 2.007449 22.477249 -21.876137 0.000000 -0.000000 0.000000 -21.170926 1.545609 -7.636149 7.873849 11.513817 113.778094 0.497550 -24.403437 -20.167851 0.000000 -0.000000 0.000000 -0.532749 0.394510 3.757671 0.654893 -5.607534 -2.122281 0.388274 1.171512 -2.268611 -1.552187 -9.970559 -7.286439 8.502987 0.473557 -31.515416 37.302963 -28.249479 -25.697756 4.652306 -12.491071 -17.891207 -0.295717 -8.411376 4.054460 1.243736 -8.741494 4.798303 -39.233133 22.844847 -24.476528 4.188605 7.790841 -13.591849 -3.285217 14.852929 2.203626 19.852897 2.574538 0.397766 
0.892742 0.575176 0.544700 90.673499 -1.462620 178.740144 15.513672 -4.627745 -9.568425 -15.346794 -13.210157 100.113727 2.027884 22.309646 -21.984626 0.000000 -0.000000 0.000000 -20.101774 0.289848 -8.426377 7.813650 13.148533 111.993823 0.807867 -24.630680 -20.121120 0.000000 -0.000000 0.000000 -0.007533 -0.175216 5.039268 0.007783 -5.543814 -6.037570 0.409313 1.243130 -0.937722 -2.116880 -10.002947 -7.286765 9.530401 1.255890 -32.380988 34.245140 -28.148396 -23.237724 2.955992 -10.547343 -18.463810 -1.422581 -10.964306 8.367282 1.596748 -8.914599 2.902480 -37.156140 23.389145 -21.880925 6.266047 7.185354 -14.251118 -3.853832 17.537714 2.006148 19.108111 2.250523 1.476411 
0.888826 0.576422 0.547372 90.863003 -1.156088 178.150043 15.874080 -4.262561 -9.703264 -14.214458 -13.540374 97.209695 1.854065 21.927542 -22.787473 0.000000 -0.000000 0.000000 -18.894202 0.511720 -8.629676 7.290045 13.586619 109.414310 1.134229 -23.553487 -20.247789 0.000000 -0.000000 0.000000 0.165541 0.056525 5.706245 -0.216095 -4.754265 -7.105995 0.982127 1.266796 -0.757804 -2.175051 -11.932361 -7.583987 9.925713 2.056156 -32.832336 31.205649 -27.526869 -20.964751 0.641140 -10.099216 -15.834148 -1.065742 -14.617525 6.356590 2.845333 -9.113220 4.496944 -36.190745 22.517550 -21.602257 5.286047 4.570792 -12.579912 4.000465 20.393410 5.433982 16.468439 3.859033 -0.957040 
0.885292 0.576291 0.547557 90.775831 -0.889033 177.353833 15.572494 -3.554949 -9.413831 -12.944068 -14.381039 92.792303 2.335217 21.496268 -22.485217 0.000000 -0.000000 0.000000 -17.874450 0.009235 -8.352821 7.317414 14.351565 105.753666 1.137983 -23.236348 -19.908220 0.000000 -0.000000 0.000000 0.079521 0.096326 6.244016 -0.100164 -4.454781 -6.815294 1.051547 1.220166 -1.249142 -1.995373 -12.464325 -8.655628 10.303104 2.548178 -33.239202 28.748029 -26.245222 -18.929725 -1.464649 -9.212322 -14.440802 -1.127168 -18.012960 7.679205 3.114032 -9.546271 2.373286 -34.532351 21.650597 -20.278037 8.591890 4.321609 -10.501880 0.328297 24.102158 4.643779 20.326797 4.383963 -2.570044 
0.880826 0.576795 0.548282 90.683262 -0.756166 176.501659 15.130015 -2.759129 -8.744517 -11.218944 -15.509370 86.865123 2.432203 21.719536 -22.081238 0.000000 -0.000000 0.000000 -17.129795 -0.590347 -7.584768 6.778480 15.079291 100.595714 1.240906 -22.971737 -19.677219 0.000000 -0.000000 0.000000 0.177825 0.078912 7.017283 -0.361941 -4.357240 -7.111861 1.491602 1.155581 -1.430416 -1.965732 -13.242438 -10.000643 10.562280 3.284411 -33.080631 26.649876 -25.090524 -17.376511 -3.671439 -8.004039 -13.002825 -1.797057 -21.504075 8.151508 5.110395 -9.791913 0.268932 -33.955716 20.824296 -19.944568 9.870820 3.208579 -9.110572 3.627452 27.593539 7.318610 19.032290 6.513795 -4.375002 
0.876497 0.576283 0.549453 90.526299 -0.618194 175.952140 14.442385 -2.207658 -7.853321 -9.326512 -16.380599 79.293809 2.653252 21.805873 -21.473262 0.000000 -0.000000 0.000000 -16.718621 -1.215260 -6.914717 6.493815 15.713030 94.241580 1.805311 -22.613684 -19.500597 0.000000 -0.000000 0.000000 0.242808 0.123310 6.904654 -0.417950 -4.070674 -6.611572 1.595364 1.031799 -1.650457 -1.872269 -13.546683 -11.739760 10.741647 3.529057 -32.899791 23.916141 -23.010755 -15.678848 -5.296646 -7.033794 -11.120964 -2.217524 -27.559881 8.444681 6.458077 -9.386773 -2.815422 -31.643260 19.150243 -18.362793 9.919605 1.578499 -6.908675 6.057454 35.928465 9.674904 18.540546 6.736023 -7.019503 
0.871587 0.575278 0.549666 90.595295 -0.322613 175.490866 14.056688 -1.571285 -6.750141 -7.474731 -17.168332 70.343082 2.800285 21.395188 -20.355338 0.000000 -0.000000 0.000000 -16.027613 -1.739514 -6.163910 5.705299 16.222659 86.224323 2.357235 -22.183444 -18.694846 0.000000 -0.000000 0.000000 0.338284 0.151040 6.523469 -0.443647 -3.776831 -6.194639 1.958546 0.764128 -1.748640 -1.715346 -13.996880 -13.243047 10.867014 4.345556 -32.524277 21.195969 -20.682731 -14.236116 -6.812323 -6.128214 -9.462080 -2.898038 -34.387582 8.879459 7.721225 -9.308565 -5.469111 -30.242577 17.795087 -17.582924 10.674758 0.838779 -4.852662 8.681446 42.099218 10.844992 17.874140 7.902301 -9.158339 
